<?xml version="1.0" standalone="no"?>
<!DOCTYPE svg PUBLIC "-//W3C//DTD SVG 20010904//EN"
 "http://www.w3.org/TR/2001/REC-SVG-20010904/DTD/svg10.dtd">
<svg version="1.0" xmlns="http://www.w3.org/2000/svg"
 width="512.000000pt" height="512.000000pt" viewBox="0 0 512.000000 512.000000"
 preserveAspectRatio="xMidYMid meet">

<g transform="translate(0.000000,512.000000) scale(0.100000,-0.100000)"
fill="#000000" stroke="none">
<path d="M2310 5053 c-1035 -101 -1883 -794 -2159 -1764 -55 -194 -79 -338
-91 -552 -18 -323 20 -620 117 -907 92 -272 238 -543 404 -747 33 -39 59 -75
59 -78 0 -4 -49 -129 -109 -279 -252 -624 -251 -621 -196 -676 57 -56 73 -53
351 58 137 55 349 143 472 195 l223 95 77 -38 c221 -109 437 -179 680 -219
132 -23 411 -44 475 -37 23 3 85 8 137 11 404 26 806 168 1180 417 282 188
571 489 759 792 400 642 467 1498 174 2216 -179 439 -495 826 -888 1088 -361
239 -743 378 -1165 422 -88 9 -419 11 -500 3z m404 -463 c-1 -30 -17 -128 -36
-217 l-34 -163 137 0 c128 0 139 -1 149 -20 11 -21 4 -44 -22 -72 -7 -7 -68
-75 -135 -150 l-123 -136 0 -175 0 -175 238 -4 c265 -5 329 -16 469 -82 220
-105 414 -311 486 -519 l24 -68 86 -4 c129 -7 195 -43 236 -130 20 -42 21 -61
21 -300 0 -240 -1 -258 -21 -297 -46 -90 -115 -127 -235 -128 l-82 0 -11 -47
c-17 -66 -71 -179 -119 -250 -108 -159 -276 -293 -452 -361 -174 -66 -251 -72
-830 -63 l-475 8 -89 27 c-303 91 -554 328 -650 614 l-23 67 -89 5 c-98 6
-131 20 -180 72 -63 66 -64 72 -64 354 0 240 1 261 21 301 40 84 105 119 232
129 l84 7 32 80 c84 215 291 424 513 519 126 53 225 68 466 68 l212 0 0 268 0
267 -126 -3 c-108 -3 -129 -1 -145 14 -10 9 -19 25 -19 35 0 9 111 146 246
304 234 273 247 286 277 283 32 -3 32 -3 31 -58z"/>
<path d="M1854 2726 c-92 -40 -150 -139 -141 -239 21 -237 343 -298 446 -84
59 123 -10 287 -138 325 -51 16 -128 15 -167 -2z"/>
<path d="M3053 2719 c-81 -40 -133 -121 -133 -205 0 -102 47 -180 134 -220 95
-44 193 -27 268 47 78 78 94 181 44 278 -21 38 -76 88 -118 105 -54 23 -144
20 -195 -5z"/>
<path d="M2147 1999 c-26 -15 -48 -65 -41 -94 15 -61 181 -167 304 -196 30 -7
100 -12 155 -12 81 1 115 6 178 27 135 45 247 133 249 194 2 60 -48 103 -104
88 -13 -3 -50 -25 -83 -50 -85 -64 -172 -90 -280 -84 -92 6 -165 35 -259 103
-49 35 -86 43 -119 24z"/>
</g>
</svg>
